M48
; DRILL file {KiCad (5.1.5)-3} date 08/22/20 13:10:30
; FORMAT={-:-/ absolute / inch / decimal}
; #@! TF.CreationDate,2020-08-22T13:10:30+02:00
; #@! TF.GenerationSoftware,Kicad,Pcbnew,(5.1.5)-3
; #@! TF.FileFunction,Plated,1,4,PTH
FMAT,2
INCH
T1C0.0118
T2C0.0157
T3C0.0197
T4C0.0354
T5C0.0390
T6C0.0394
T7C0.0453
T8C0.0469
T9C0.1201
%
G90
G05
T1
X0.7064Y-4.4122
X0.7164Y-4.2522
X0.72Y-2.61
X0.72Y-2.65
X0.7364Y-4.5522
X0.7422Y-3.6776
X0.8164Y-4.1822
X0.8524Y-3.2682
X0.8596Y-3.855
X0.8686Y-3.5156
X0.8724Y-3.3582
X0.8964Y-4.4122
X0.8982Y-4.5522
X0.9064Y-4.2522
X0.9328Y-3.7176
X0.9374Y-3.619
X0.9382Y-3.5558
X0.9402Y-3.7742
X0.97Y-4.11
X1.0182Y-3.5928
X1.0185Y-3.7769
X1.0778Y-3.8214
X1.0795Y-3.7274
X1.0795Y-3.629
X1.0974Y-3.5602
X1.1006Y-3.7768
X1.1026Y-3.593
X1.1258Y-3.6852
X1.14Y-4.64
X1.17Y-2.6
X1.17Y-2.65
X1.19Y-1.8908
X1.1918Y-4.11
X1.1926Y-2.0304
X1.204Y-2.0874
X1.21Y-3.47
X1.22Y-3.52
X1.2386Y-3.6852
X1.24Y-3.6
X1.2794Y-1.8976
X1.2936Y-4.6
X1.2942Y-1.8534
X1.2992Y-4.4528
X1.3Y-3.25
X1.33Y-3.28
X1.34Y-3.87
X1.35Y-3.55
X1.35Y-3.59
X1.35Y-3.63
X1.35Y-4.74
X1.374Y-4.5315
X1.3898Y-4.5079
X1.3898Y-4.5551
X1.392Y-2.0842
X1.4094Y-4.5315
X1.41Y-3.8533
X1.41Y-3.9754
X1.41Y-3.9
X1.4218Y-4.342
X1.4278Y-1.878
X1.4324Y-3.2924
X1.4488Y-4.6181
X1.45Y-3.19
X1.4524Y-3.2724
X1.4606Y-4.437
X1.5Y-3.02
X1.5177Y-3.3377
X1.54Y-3.36
X1.54Y-4.19
X1.54Y-4.23
X1.54Y-4.28
X1.55Y-2.92
X1.5669Y-3.624
X1.5699Y-3.5709
X1.5699Y-3.8366
X1.57Y-4.11
X1.5728Y-3.7563
X1.5728Y-3.8081
X1.5747Y-3.7249
X1.5762Y-2.0828
X1.58Y-2.6136
X1.58Y-4.19
X1.58Y-4.23
X1.58Y-4.28
X1.585Y-3.5201
X1.59Y-2.79
X1.6Y-2.92
X1.6192Y-2.1926
X1.638Y-4.326
X1.66Y-2.97
X1.68Y-4.41
X1.69Y-2.73
X1.69Y-3.86
X1.69Y-3.98
X1.69Y-4.02
X1.71Y-2.97
X1.72Y-2.79
X1.73Y-4.12
X1.76Y-2.0
X1.76Y-2.09
X1.76Y-2.2751
X1.76Y-3.34
X1.76Y-3.38
X1.763Y-3.977
X1.77Y-2.1764
X1.77Y-2.46
X1.77Y-2.55
X1.77Y-2.61
X1.79Y-3.2
X1.81Y-2.97
X1.81Y-3.4
X1.82Y-4.01
X1.83Y-3.08
X1.86Y-3.31
X1.875Y-4.1791
X1.8846Y-3.7575
X1.9016Y-3.3907
X1.9094Y-3.9744
X1.9104Y-4.2343
X1.919Y-4.736
X1.9467Y-3.4616
X1.95Y-2.72
X1.9547Y-4.3091
X2.0Y-3.15
X2.01Y-4.78
X2.0177Y-3.6223
X2.04Y-3.6
X2.0534Y-2.3422
X2.0534Y-2.5622
X2.06Y-3.13
X2.06Y-3.22
X2.06Y-3.62
X2.06Y-4.6
X2.07Y-3.77
X2.07Y-3.9379
X2.08Y-3.55
X2.1034Y-2.5622
X2.11Y-3.42
X2.13Y-3.13
X2.15Y-3.4
X2.16Y-3.83
X2.1752Y-3.4472
X2.18Y-3.13
X2.1949Y-3.4727
X2.2Y-3.36
X2.23Y-4.08
X2.24Y-3.13
X2.243Y-2.4203
X2.26Y-3.31
X2.2667Y-2.5393
X2.2694Y-2.2276
X2.29Y-3.95
X2.31Y-2.95
X2.33Y-3.96
X2.34Y-4.29
X2.37Y-3.83
X2.3927Y-3.7234
X2.3947Y-3.688
X2.41Y-4.39
X2.41Y-4.43
X2.41Y-4.48
X2.42Y-3.22
X2.42Y-3.28
X2.45Y-3.33
X2.45Y-3.45
X2.45Y-3.66
X2.45Y-3.83
X2.45Y-4.13
X2.46Y-4.4278
X2.46Y-4.48
X2.4606Y-4.3872
X2.4678Y-2.2244
X2.47Y-3.4963
X2.47Y-3.7813
X2.48Y-3.75
X2.4858Y-2.5526
X2.49Y-4.06
X2.491Y-2.3541
X2.4917Y-4.0217
X2.497Y-2.4786
X2.5067Y-1.9476
X2.51Y-3.48
X2.5139Y-3.7239
X2.52Y-4.3872
X2.52Y-4.43
X2.52Y-4.48
X2.53Y-3.53
X2.53Y-3.89
X2.54Y-3.7
X2.5408Y-3.7476
X2.575Y-2.75
X2.58Y-2.71
X2.5814Y-2.5486
X2.5827Y-1.8907
X2.6004Y-2.3986
X2.6152Y-1.8189
X2.624Y-1.9321
X2.645Y-4.5904
X2.6467Y-2.1191
X2.6488Y-2.2324
X2.6541Y-1.9621
X2.6547Y-2.0756
X2.66Y-2.95
X2.6604Y-2.4665
X2.68Y-3.53
X2.68Y-3.7
X2.685Y-3.9528
X2.6856Y-3.3266
X2.6884Y-3.8836
X2.689Y-3.9213
X2.689Y-1.997
X2.705Y-2.8664
X2.7244Y-3.9528
X2.7283Y-3.9213
X2.729Y-3.883
X2.74Y-2.75
X2.7553Y-4.5209
X2.7569Y-3.0933
X2.7576Y-4.3768
X2.7598Y-3.9528
X2.7677Y-3.9213
X2.7682Y-3.883
X2.7707Y-2.3888
X2.7881Y-2.415
X2.79Y-3.05
X2.7942Y-4.5508
X2.7995Y-1.9574
X2.7996Y-2.8821
X2.8102Y-2.4374
X2.82Y-2.79
X2.8249Y-4.2051
X2.83Y-4.16
X2.8344Y-2.4577
X2.8498Y-2.9086
X2.85Y-3.05
X2.8528Y-3.2744
X2.855Y-2.87
X2.86Y-4.25
X2.87Y-4.16
X2.8953Y-4.13
X2.9058Y-1.9675
X2.915Y-4.1
X2.9255Y-2.7264
X2.9263Y-4.1944
X2.93Y-3.94
X2.9491Y-2.7558
X2.96Y-4.5372
X2.97Y-4.26
X2.97Y-4.3
X2.9704Y-2.7836
X2.99Y-4.19
X2.9928Y-2.8057
X3.015Y-2.828
X3.0373Y-2.8503
X3.0431Y-3.1317
X3.0438Y-3.0977
X3.0445Y-3.0635
X3.0467Y-3.0279
X3.0482Y-3.9446
X3.0511Y-2.9567
X3.0522Y-2.989
X3.0584Y-2.9199
X3.0596Y-2.8726
X3.06Y-4.22
X3.06Y-4.44
X3.08Y-4.1
X3.0818Y-2.8948
X3.107Y-3.2912
X3.11Y-4.12
X3.1129Y-1.9003
X3.1178Y-4.2598
X3.1282Y-3.2752
X3.1476Y-1.8952
X3.15Y-4.09
X3.15Y-4.18
X3.17Y-4.13
X3.1778Y-4.3918
X3.1778Y-4.4318
X3.1791Y-1.8952
X3.2082Y-1.9346
X3.21Y-4.17
X3.2106Y-1.8957
X3.2178Y-4.3918
X3.2178Y-4.4318
X3.23Y-4.19
X3.2382Y-2.2539
X3.2397Y-1.9353
X3.2443Y-4.1358
X3.2515Y-4.0938
X3.2598Y-2.1909
X3.2677Y-2.2835
X3.27Y-3.94
X3.2711Y-1.9368
X3.2852Y-3.2668
X3.2982Y-2.0453
X3.3034Y-1.9349
X3.3042Y-3.0904
X3.31Y-4.15
X3.335Y-2.675
X3.335Y-2.72
X3.34Y-3.35
X3.34Y-4.2055
X3.34Y-4.3
X3.3465Y-2.0177
X3.348Y-3.1063
X3.35Y-3.5
X3.35Y-3.92
X3.36Y-2.08
X3.36Y-3.58
X3.384Y-4.176
X3.4055Y-2.6476
X3.4154Y-2.971
X3.4172Y-2.6792
X3.4363Y-2.15
X3.4449Y-2.9474
X3.4508Y-2.6791
X3.4744Y-2.7067
X3.4843Y-3.0118
X3.51Y-3.7048
X3.5138Y-3.0709
X3.5191Y-2.54
X3.52Y-4.11
X3.5266Y-3.7563
X3.5335Y-2.5787
X3.5372Y-2.925
X3.5461Y-3.4989
X3.5489Y-3.7038
X3.5491Y-3.5327
X3.5531Y-2.9528
X3.5631Y-2.5985
X3.5659Y-3.7343
X3.5728Y-2.8051
X3.58Y-3.95
X3.5841Y-2.6312
X3.5906Y-2.9002
X3.6074Y-4.306
X3.6094Y-2.7795
X3.6201Y-2.7093
X3.622Y-2.8307
X3.6391Y-2.7598
X3.6425Y-2.8755
X3.6516Y-2.4508
X3.6516Y-2.6857
X3.6517Y-3.0417
X3.6544Y-2.9449
X3.6614Y-2.7362
X3.6614Y-2.8465
X3.67Y-3.6
X3.6713Y-4.0896
X3.7008Y-2.0177
X3.7303Y-2.4803
X3.7402Y-3.0906
X3.7439Y-2.5819
X3.7439Y-2.6409
X3.7439Y-2.7197
X3.7439Y-2.8574
X3.7444Y-2.9987
X3.7726Y-3.0915
X3.7736Y-3.7077
X3.8041Y-3.0897
X3.8317Y-4.5217
X3.8355Y-3.0915
X3.8524Y-2.4902
X3.8839Y-2.4902
X3.8917Y-4.2697
X3.9065Y-3.9449
X3.9154Y-2.4902
X3.9469Y-2.4902
X3.9665Y-2.5846
X3.9665Y-2.7208
X3.9665Y-3.1437
X3.9665Y-3.002
X3.9709Y-2.8589
X3.9709Y-2.6424
X4.0181Y-2.2815
X4.045Y-2.3051
X4.0522Y-2.436
X4.0551Y-2.9429
X4.0722Y-2.3287
X4.0945Y-2.3524
X4.0945Y-2.9429
X4.0945Y-3.189
X4.097Y-2.9797
X4.1043Y-3.2283
X4.1142Y-3.2677
X4.1437Y-2.6476
X4.1437Y-3.2874
X4.1929Y-2.7854
X4.2224Y-2.8091
X4.225Y-2.7584
X4.2421Y-2.639
X4.252Y-2.8445
X4.252Y-2.9429
X4.2618Y-2.7348
X4.2717Y-3.0012
X4.2736Y-2.639
X4.2888Y-2.702
X4.3031Y-2.9016
X4.311Y-2.639
X4.311Y-2.7657
X4.311Y-2.8051
X4.3209Y-2.6835
X4.3209Y-3.0484
X4.3209Y-3.0957
X4.3504Y-3.1496
X4.4083Y-4.1358
X4.5659Y-3.4006
X4.6309Y-3.7766
X4.6319Y-3.8278
X4.6319Y-3.8691
X4.6831Y-3.7795
X4.6831Y-3.8278
X4.6831Y-3.8691
X4.6939Y-3.938
X4.6969Y-2.122
X4.7313Y-3.7795
X4.752Y-2.3268
X4.753Y-1.7264
X4.7549Y-1.6939
X4.7638Y-2.5689
X4.7638Y-2.5984
X4.7716Y-3.8548
X4.7805Y-3.7795
X4.7835Y-2.3425
X4.7878Y-3.675
X4.7982Y-1.6939
X4.8012Y-1.7264
X4.8031Y-2.4606
X4.8031Y-2.4921
X4.8031Y-2.5236
X4.8031Y-2.5886
X4.8031Y-2.9921
X4.8031Y-3.0236
X4.8031Y-3.0551
X4.8031Y-3.0906
X4.8031Y-3.122
X4.815Y-3.398
X4.8225Y-2.3583
X4.8484Y-1.6919
X4.8484Y-1.7244
X4.8524Y-2.3819
X4.8584Y-3.815
X4.8602Y-1.6319
X4.8726Y-3.711
X4.877Y-1.5138
X4.91Y-4.26
X4.92Y-4.37
X4.9213Y-3.1575
X4.9311Y-2.2835
X4.9311Y-2.6181
X4.9475Y-3.175
X4.9626Y-2.6181
X4.9705Y-2.7657
X4.9705Y-2.8051
X4.9709Y-2.2732
X4.9783Y-3.688
X4.9941Y-2.6181
X4.9941Y-3.1752
X5.0094Y-3.4286
X5.0197Y-2.2835
X5.0207Y-3.7096
X5.0207Y-3.7402
X5.0256Y-2.6181
X5.0256Y-3.1713
X5.0482Y-3.7096
X5.0482Y-3.7392
X5.0591Y-2.2835
X5.0591Y-2.9528
X5.0591Y-3.1693
X5.0778Y-1.6555
X5.0778Y-3.7096
X5.0778Y-3.7382
X5.0787Y-1.5463
X5.0797Y-3.8976
X5.0807Y-3.8337
X5.0906Y-2.9528
X5.0906Y-3.1693
X5.1181Y-3.1181
X5.122Y-2.9528
X5.1309Y-3.5994
X5.1339Y-1.6024
X5.1496Y-3.1102
X5.1535Y-2.9528
X5.1969Y-1.5453
X5.2057Y-1.6535
T2
X0.8164Y-4.5022
T4
X5.2116Y-3.7549
X5.2116Y-3.873
T5
X0.7241Y-2.89
X0.7241Y-3.0672
X0.98Y-2.89
X0.98Y-3.0672
X0.7241Y-2.54
X0.7241Y-2.7172
X0.98Y-2.54
X0.98Y-2.7172
X1.1741Y-2.89
X1.1741Y-3.0672
X1.43Y-2.89
X1.43Y-3.0672
X1.1741Y-2.54
X1.1741Y-2.7172
X1.43Y-2.54
X1.43Y-2.7172
X1.1735Y-2.19
X1.1735Y-2.3672
X1.4294Y-2.19
X1.4294Y-2.3672
X0.7241Y-2.19
X0.7241Y-2.3672
X0.98Y-2.19
X0.98Y-2.3672
T6
X2.3726Y-1.9888
T7
X0.7894Y-4.6892
X0.7894Y-4.7892
X0.8894Y-4.6892
X0.8894Y-4.7892
X0.9894Y-4.6892
X0.9894Y-4.7892
X1.0894Y-4.6892
X1.0894Y-4.7892
X3.6185Y-1.5909
X3.6185Y-1.6909
X3.7185Y-1.5909
X3.7185Y-1.6909
X3.8185Y-1.5909
X3.8185Y-1.6909
X3.9185Y-1.5909
X3.9185Y-1.6909
X3.1Y-4.65
X3.1Y-4.75
X3.2Y-4.65
X3.2Y-4.75
X3.3Y-4.65
X3.3Y-4.75
X3.4Y-4.65
X3.4Y-4.75
X0.7884Y-1.6004
X0.7884Y-1.7004
X0.7884Y-1.8004
X0.7884Y-1.9004
X0.8884Y-1.6004
X0.8884Y-1.7004
X0.8884Y-1.8004
X0.8884Y-1.9004
X4.1549Y-1.5917
X4.1549Y-1.6917
X4.2549Y-1.5917
X4.2549Y-1.6917
X4.3549Y-1.5917
X4.3549Y-1.6917
X4.4549Y-1.5917
X4.4549Y-1.6917
X3.57Y-4.65
X3.57Y-4.75
X3.67Y-4.65
X3.67Y-4.75
X3.77Y-4.65
X3.77Y-4.75
X3.87Y-4.65
X3.87Y-4.75
X2.5766Y-1.5916
X2.5766Y-1.6916
X4.1549Y-1.8565
X4.1549Y-1.9565
X4.2549Y-1.8565
X4.2549Y-1.9565
X4.3549Y-1.8565
X4.3549Y-1.9565
X4.4549Y-1.8565
X4.4549Y-1.9565
X4.1146Y-3.5762
X4.1146Y-3.6762
X4.2146Y-3.5762
X4.2146Y-3.6762
X4.3146Y-3.5762
X4.3146Y-3.6762
X4.4146Y-3.5762
X4.4146Y-3.6762
X3.1774Y-1.5909
X3.1774Y-1.6909
X3.2774Y-1.5909
X3.2774Y-1.6909
X3.3774Y-1.5909
X3.3774Y-1.6909
X3.4774Y-1.5909
X3.4774Y-1.6909
X2.14Y-4.65
X2.14Y-4.75
X2.24Y-4.65
X2.24Y-4.75
X2.34Y-4.65
X2.34Y-4.75
X2.44Y-4.65
X2.44Y-4.75
X2.6195Y-4.65
X2.6195Y-4.75
X2.7195Y-4.65
X2.7195Y-4.75
X2.8195Y-4.65
X2.8195Y-4.75
X2.9195Y-4.65
X2.9195Y-4.75
X4.1154Y-3.8287
X4.1154Y-3.9287
X4.2154Y-3.8287
X4.2154Y-3.9287
X4.3154Y-3.8287
X4.3154Y-3.9287
X4.4154Y-3.8287
X4.4154Y-3.9287
X1.8343Y-1.6421
X1.8343Y-1.7421
X1.9343Y-1.6421
X1.9343Y-1.7421
X2.0343Y-1.6421
X2.0343Y-1.7421
X2.1343Y-1.6421
X2.1343Y-1.7421
X2.2343Y-1.6421
X2.2343Y-1.7421
X2.7374Y-1.5909
X2.7374Y-1.6909
X2.8374Y-1.5909
X2.8374Y-1.6909
X2.9374Y-1.5909
X2.9374Y-1.6909
X3.0374Y-1.5909
X3.0374Y-1.6909
X2.2567Y-3.6071
X2.2567Y-3.7071
T8
X4.4504Y-4.2331
X4.4504Y-4.4331
X4.4955Y-4.3331
X4.5406Y-4.2331
X4.5406Y-4.4331
X4.5856Y-4.3331
X4.6307Y-4.2331
X4.6307Y-4.4331
X4.6758Y-4.3331
X4.7209Y-4.2331
X4.7209Y-4.4331
X4.7659Y-4.3331
X4.811Y-4.2331
X4.811Y-4.4331
X4.8561Y-4.3331
T9
X4.1488Y-4.3331
X5.1327Y-4.3331
T3
G00X0.754Y-3.5014
M15
G01X0.7304Y-3.5014
M16
G05
G00X0.754Y-3.855
M15
G01X0.7304Y-3.855
M16
G05
G00X0.9883Y-3.5156
M15
G01X0.9646Y-3.5156
M16
G05
G00X0.9883Y-3.8408
M15
G01X0.9646Y-3.8408
M16
G05
T0
M30
